<?xml version="1.0" encoding="iso-8859-1"?>
<!-- Uploaded to: SVG Repo, www.svgrepo.com, Generator: SVG Repo Mixer Tools -->
<svg fill="#000000" height="800px" width="800px" version="1.1" id="Layer_1" xmlns="http://www.w3.org/2000/svg" xmlns:xlink="http://www.w3.org/1999/xlink" 
	 viewBox="0 0 511.999 511.999" xml:space="preserve">
<g>
	<g>
		<g>
			<path d="M511.998,206.478c0-15.334-12.474-27.809-27.807-27.809H372.616c-0.551-3.323-1.406-6.546-2.55-9.63l28.263-28.263
				c5.211-5.211,8.081-12.141,8.081-19.511c0-7.371-2.869-14.3-8.081-19.509c-5.211-5.213-12.14-8.083-19.511-8.083
				c-7.37,0-14.299,2.87-19.511,8.082l-33.093,33.093c-1.864-0.199-3.754-0.309-5.67-0.309h-12.704
				c-26.16,0-47.925,19.129-52.073,44.129H27.809C12.475,178.671,0,191.145,0,206.478v19.14c0,54.63,40.888,99.889,93.671,106.786
				l-2.62,2.62c-12.39,12.391-12.39,32.55,0,44.941l29.069,29.069c6.195,6.194,14.332,9.292,22.469,9.292
				c8.138,0,16.276-3.098,22.47-9.292l75.714-75.715h163.524c59.387,0,107.701-48.314,107.701-107.701L511.998,206.478z
				 M371.565,114.013c1.938-1.939,4.513-3.007,7.253-3.007c2.741,0,5.317,1.068,7.254,3.007c1.938,1.937,3.004,4.512,3.004,7.252
				c0,2.74-1.068,5.317-3.004,7.253L361.06,153.53c-4.433-5.304-9.887-9.72-16.055-12.959L371.565,114.013z M331.846,153.732
				c6.773,2.284,12.637,6.557,16.89,12.125l-18.094,18.096l-14.509-14.509L331.846,153.732z M318.384,196.208l-14.508,14.508
				l-14.508-14.508l14.508-14.508L318.384,196.208z M307.839,151.874h1.35l-26.796,26.796h-8.94
				C277.33,163.293,291.275,151.874,307.839,151.874z M17.333,225.619v-19.14c0-5.776,4.7-10.476,10.476-10.476h237.25
				l-41.54,41.541H18.144C17.626,233.639,17.333,229.663,17.333,225.619z M30.582,272.674c-3.407-5.564-6.209-11.529-8.361-17.796
				H171.2c-0.027,0.024-0.051,0.047-0.076,0.073L153.4,272.674H30.582z M44.374,290.006h91.694l-25.979,25.98h-2.387
				C83.056,315.987,60.693,306.06,44.374,290.006z M237.907,293.274c1.168,9.947,1.449,16.952-5.029,23.428l-80.075,80.074
				c-5.631,5.632-14.795,5.634-20.426,0l-29.069-29.069c-5.632-5.631-5.632-14.795,0-20.426l80.073-80.075
				c6.479-6.477,13.482-6.196,23.427-5.029c6.959,0.817,14.846,1.741,20.486-3.896l49.816-49.816l14.508,14.508l-49.851,49.852
				C236.168,278.465,237.092,286.333,237.907,293.274z M404.299,315.987H253.584c3.367-9.094,2.32-18.064,1.537-24.733
				c-0.046-0.396-0.096-0.818-0.144-1.247h212.649C451.307,306.06,428.944,315.987,404.299,315.987z M481.418,272.673H266.432
				l17.795-17.795h205.551C487.626,261.146,484.824,267.11,481.418,272.673z M493.856,237.545H301.563l41.541-41.541h141.087
				c5.775,0,10.474,4.698,10.474,10.476l0.002,19.139C494.667,229.663,494.374,233.639,493.856,237.545z"/>
			<path d="M154.313,211.297H54.937c-4.787,0-8.667,3.879-8.667,8.667c0,4.787,3.879,8.667,8.667,8.667h99.376
				c4.787,0,8.667-3.879,8.667-8.667C162.98,215.176,159.101,211.297,154.313,211.297z"/>
		</g>
	</g>
</g>
</svg>