<?xml version="1.0" encoding="iso-8859-1"?>
<!-- Uploaded to: SVG Repo, www.svgrepo.com, Generator: SVG Repo Mixer Tools -->
<svg fill="#000000" height="800px" width="800px" version="1.1" id="Layer_1" xmlns="http://www.w3.org/2000/svg" xmlns:xlink="http://www.w3.org/1999/xlink" 
	 viewBox="0 0 512 512" xml:space="preserve">
<g>
	<g>
		<g>
			<path d="M501.939,494.379c-2.21,0.367-4.574,0.555-7.006,0.555c-19.618,0-26.283-11.955-26.505-12.348
				c-1.425-2.85-4.344-4.608-7.526-4.659c-3.038-0.034-6.17,1.741-7.68,4.548c-0.273,0.503-6.938,12.459-26.556,12.459
				c-19.618,0-26.283-11.955-26.505-12.348c-1.425-2.85-4.344-4.608-7.526-4.659c-3.524-0.034-6.161,1.741-7.68,4.548
				c-0.273,0.503-6.938,12.459-26.556,12.459c-19.618,0-26.283-11.955-26.505-12.348c-1.425-2.85-4.344-4.608-7.526-4.659
				c-3.388-0.034-6.161,1.741-7.68,4.548c-0.273,0.503-6.938,12.459-26.556,12.459c-19.618,0-26.283-11.955-26.505-12.348
				c-1.417-2.85-4.343-4.608-7.526-4.659c-3.243-0.034-6.17,1.741-7.68,4.548c-0.273,0.503-6.938,12.459-26.556,12.459
				c-19.618,0-26.283-11.955-26.505-12.348c-1.425-2.85-4.343-4.608-7.526-4.659c-3.098-0.034-6.17,1.741-7.68,4.548
				c-0.273,0.503-6.938,12.459-26.556,12.459c-19.618,0-26.283-11.955-26.505-12.348c-1.425-2.85-4.343-4.608-7.526-4.659
				c-2.953-0.034-6.17,1.741-7.68,4.548c-0.273,0.503-6.938,12.459-26.556,12.459c-19.618,0-26.283-11.955-26.505-12.348
				c-1.417-2.85-4.343-4.608-7.526-4.659c-3.448-0.034-6.161,1.741-7.68,4.548c-0.273,0.503-6.938,12.459-26.556,12.459
				c-2.449,0-4.608-0.179-6.972-0.58c-4.676-0.819-9.054,2.347-9.847,6.989c-0.785,4.642,2.347,9.054,6.997,9.839
				c3.294,0.555,6.426,0.819,9.822,0.819c16.879,0,27.733-6.391,34.133-12.254C57.6,505.609,68.446,512,85.333,512
				c16.879,0,27.733-6.391,34.133-12.254c6.4,5.862,17.254,12.254,34.133,12.254c16.879,0,27.733-6.391,34.133-12.254
				c6.4,5.862,17.254,12.254,34.133,12.254c16.879,0,27.733-6.391,34.133-12.254c6.4,5.862,17.246,12.254,34.133,12.254
				s27.733-6.391,34.133-12.254c6.4,5.862,17.246,12.254,34.133,12.254c16.879,0,27.733-6.391,34.133-12.254
				c6.4,5.862,17.246,12.254,34.133,12.254s27.733-6.391,34.133-12.254c6.4,5.862,17.246,12.254,34.133,12.254
				c3.362,0,6.647-0.264,9.796-0.776c4.642-0.777,7.782-5.163,7.023-9.813C510.993,496.76,506.684,493.636,501.939,494.379z"/>
			<path d="M203.58,157.739c-2.424-4.028-7.654-5.35-11.708-2.918L153.6,177.783l-38.272-22.963
				c-4.045-2.432-9.284-1.109-11.708,2.918c-2.432,4.045-1.118,9.284,2.918,11.708l30.481,18.287l-30.481,18.287
				c-4.036,2.423-5.35,7.663-2.918,11.708c1.596,2.662,4.42,4.139,7.322,4.139c1.493,0,3.004-0.393,4.386-1.22l38.272-22.963
				l38.272,22.963c1.374,0.828,2.893,1.22,4.386,1.22c2.901,0,5.726-1.476,7.322-4.139c2.432-4.045,1.118-9.284-2.918-11.708
				l-30.481-18.287l30.481-18.287C204.698,167.023,206.012,161.783,203.58,157.739z"/>
			<path d="M173.167,377.967l-25.754,25.754c-9.481-4.284-21.41-2.722-28.979,4.847l-8.533,8.525
				c-4.838,4.838-7.501,11.273-7.501,18.108s2.662,13.269,7.501,18.099c4.83,4.838,11.264,7.501,18.099,7.501
				s13.269-2.662,18.099-7.501l8.533-8.525c4.83-4.838,7.501-11.273,7.501-18.108c0-3.874-0.939-7.578-2.569-10.974l25.668-25.66
				c3.336-3.336,3.336-8.73,0-12.066C181.897,374.63,176.503,374.63,173.167,377.967z M142.566,432.7l-8.533,8.533
				c-3.234,3.226-8.832,3.226-12.066,0c-1.621-1.613-2.5-3.755-2.5-6.033s0.879-4.42,2.5-6.033l8.533-8.533
				c1.613-1.613,3.755-2.5,6.033-2.5c2.116,0,4.07,0.836,5.641,2.236c0.111,0.12,0.145,0.282,0.256,0.401
				c0.119,0.111,0.282,0.154,0.401,0.256c1.399,1.562,2.236,3.524,2.236,5.641C145.067,428.945,144.188,431.087,142.566,432.7z"/>
			<path d="M76.8,307.2h145.067v8.533c0,4.71,3.814,8.533,8.533,8.533s8.533-3.823,8.533-8.533V307.2h136.533
				c3.183,0,6.101-1.775,7.569-4.591c1.476-2.825,1.246-6.229-0.58-8.832c-57.472-82.108-58.189-232.533-58.189-234.044
				c0-3.149-1.732-6.042-4.506-7.526c-2.782-1.485-6.144-1.314-8.764,0.427C308.762,54.127,256,89.933,256,145.067
				c0,4.71,3.814,8.533,8.533,8.533s8.533-3.823,8.533-8.533c0-30.387,20.557-54.682,34.603-67.729
				c1.8,40.687,10.479,142.387,52.164,212.796H83.849c-14.865-80.324-5.171-144,28.843-189.329
				c35.319-47.07,88.081-61.338,109.21-65.297c0.666,105.472,12.066,182.34,34.79,234.795c1.877,4.326,6.895,6.323,11.23,4.437
				c4.318-1.869,6.306-6.895,4.437-11.221c-22.494-51.9-33.425-129.724-33.425-237.918V8.533c0-4.71-3.814-8.533-8.533-8.533
				s-8.533,3.823-8.533,8.533v9.6c-21.325,3.439-81.621,17.672-122.675,72.226c-38.144,50.688-48.495,121.335-30.763,209.98
				C69.231,304.333,72.73,307.2,76.8,307.2z"/>
			<path d="M258.5,377.967l-25.754,25.754c-9.481-4.284-21.41-2.722-28.979,4.847l-8.533,8.525
				c-4.83,4.838-7.501,11.273-7.501,18.108s2.671,13.269,7.501,18.099c4.83,4.838,11.264,7.501,18.099,7.501
				s13.269-2.662,18.099-7.501l8.533-8.525c4.838-4.838,7.501-11.273,7.501-18.108c0-3.874-0.939-7.578-2.569-10.974l25.668-25.66
				c3.337-3.336,3.337-8.73,0-12.066C267.23,374.63,261.837,374.63,258.5,377.967z M227.9,432.7l-8.533,8.533
				c-3.234,3.226-8.832,3.226-12.066,0c-1.621-1.613-2.5-3.755-2.5-6.033s0.879-4.42,2.5-6.033l8.533-8.533
				c1.613-1.613,3.755-2.5,6.033-2.5c2.116,0,4.07,0.836,5.641,2.236c0.111,0.12,0.145,0.282,0.256,0.401
				c0.12,0.111,0.282,0.154,0.401,0.256c1.399,1.562,2.236,3.524,2.236,5.641C230.4,428.945,229.521,431.087,227.9,432.7z"/>
			<path d="M503.467,221.867h-34.133c-23.125,0-42.667,19.541-42.667,42.667v34.133c0,23.125-19.541,42.667-42.667,42.667H68.267
				c-3.029,0-5.82-5.12-9.438-12.348c-4.599-9.19-10.889-21.786-24.695-21.786h-25.6C3.814,307.2,0,311.023,0,315.733V384
				c0,41.207,19.26,57.233,46.464,75.366c3.925,2.62,9.225,1.544,11.836-2.364c2.62-3.925,1.562-9.225-2.364-11.836
				C31.104,428.621,17.067,417.613,17.067,384v-59.733h17.067c3.021,0,5.82,5.12,9.429,12.348
				c4.599,9.19,10.897,21.786,24.704,21.786H384c32.375,0,59.733-27.358,59.733-59.733v-34.133c0-13.636,11.964-25.6,25.6-25.6h25.6
				v15.889c-0.93,0.64-2.62,1.476-3.814,2.082c-4.958,2.475-13.252,6.622-13.252,16.162v76.8c0,62.993-29.449,77.713-63.548,94.763
				c-4.216,2.116-5.931,7.236-3.814,11.452c1.493,2.995,4.506,4.727,7.637,4.719c1.28,0,2.586-0.29,3.806-0.896
				c34.21-17.109,72.986-36.497,72.986-110.037v-75.622c0.93-0.631,2.62-1.476,3.814-2.074C503.706,269.688,512,265.54,512,256
				v-25.6C512,225.69,508.186,221.867,503.467,221.867z"/>
			<path d="M355.9,377.967c-3.337-3.336-8.73-3.336-12.066,0l-25.754,25.754c-9.481-4.284-21.41-2.722-28.979,4.847l-8.533,8.525
				c-4.838,4.838-7.501,11.273-7.501,18.108s2.662,13.269,7.501,18.099c4.83,4.838,11.264,7.501,18.099,7.501
				s13.269-2.662,18.099-7.501l8.533-8.525c4.83-4.838,7.501-11.273,7.501-18.108c0-3.874-0.939-7.578-2.568-10.974l25.668-25.66
				C359.236,386.697,359.236,381.303,355.9,377.967z M313.233,432.7l-8.533,8.533c-3.234,3.226-8.832,3.226-12.066,0
				c-1.621-1.613-2.5-3.755-2.5-6.033s0.879-4.42,2.5-6.033l8.533-8.533c1.613-1.613,3.755-2.5,6.033-2.5
				c2.116,0,4.07,0.836,5.641,2.236c0.111,0.12,0.145,0.282,0.256,0.401c0.119,0.111,0.282,0.154,0.401,0.256
				c1.399,1.562,2.236,3.524,2.236,5.641C315.733,428.945,314.846,431.087,313.233,432.7z"/>
		</g>
	</g>
</g>
</svg>